<?xml version="1.0" encoding="utf-8"?>
<!-- Generator: Adobe Illustrator 14.0.0, SVG Export Plug-In . SVG Version: 6.00 Build 43363)  -->
<!DOCTYPE svg PUBLIC "-//W3C//DTD SVG 1.1//EN" "http://www.w3.org/Graphics/SVG/1.1/DTD/svg11.dtd">
<svg version="1.1" id="Calque_1" xmlns="http://www.w3.org/2000/svg" xmlns:xlink="http://www.w3.org/1999/xlink" x="0px" y="0px"
	 width="595.28px" height="396.151px" viewBox="0 0 595.28 396.151" enable-background="new 0 0 595.28 396.151"
	 xml:space="preserve">
<polygon fill-rule="evenodd" clip-rule="evenodd" points="179.111,0 218.094,0 198.076,61.108 "/>
<polygon fill-rule="evenodd" clip-rule="evenodd" points="115.896,15.804 130.646,76.912 82.18,35.822 "/>
<polygon fill-rule="evenodd" clip-rule="evenodd" points="281.31,15.804 315.024,34.769 267.613,77.966 "/>
<polygon fill-rule="evenodd" clip-rule="evenodd" points="34.769,82.18 79.02,129.592 16.857,115.896 "/>
<polygon fill-rule="evenodd" clip-rule="evenodd" points="0,178.057 61.108,198.076 0,218.094 "/>
<polygon fill-rule="evenodd" clip-rule="evenodd" points="79.02,266.559 36.876,313.971 16.857,281.31 "/>
<polygon fill-rule="evenodd" clip-rule="evenodd" points="128.539,317.132 115.896,380.347 82.18,360.329 "/>
<polygon fill-rule="evenodd" clip-rule="evenodd" points="266.559,317.132 313.971,360.329 281.31,380.347 "/>
<polygon fill-rule="evenodd" clip-rule="evenodd" points="218.094,396.151 179.111,396.151 199.129,336.096 "/>
<path stroke="#000000" stroke-width="4" d="M411.185,138.021l1.307,25.749l-1.767,0.078c-0.666-4.369-1.765-7.984-3.301-10.845
	c-1.535-2.86-3.761-5.384-6.677-7.568c-2.405-1.82-5.245-3.108-8.521-3.863c-3.275-0.753-7.625-1.131-13.049-1.131H361.6v46.816
	h4.606c4.655,0,8.161-0.313,10.516-0.937c2.354-0.624,4.271-1.742,5.756-3.355c1.432-1.508,2.496-3.29,3.188-5.346
	c0.689-2.053,1.265-5.082,1.726-9.088l1.767,0.078l-0.308,41.822h-1.765c-0.463-4.005-1.14-7.23-2.035-9.675
	c-0.896-2.445-2.137-4.526-3.724-6.242c-1.533-1.665-3.529-2.888-5.985-3.668c-2.457-0.781-5.579-1.171-9.365-1.171H361.6v17.868
	c0,7.128,0.18,12.316,0.538,15.566c0.357,3.252,1.049,5.97,2.072,8.154c1.739,3.746,4.387,6.49,7.945,8.233
	c3.556,1.743,8.25,2.613,14.083,2.613c6.141,0,11.285-0.792,15.43-2.379c4.145-1.585,7.523-4.043,10.132-7.373
	c1.842-2.237,3.34-4.786,4.489-7.647c1.152-2.86,2.214-6.633,3.188-11.315l1.765,0.079l-0.997,31.055h-91.572v-1.795
	c2.917-0.156,5.282-0.572,7.1-1.249c1.815-0.674,3.44-1.766,4.874-3.276c1.586-1.665,2.674-3.785,3.263-6.36
	c0.587-2.574,0.882-6.515,0.882-11.821v-57.505c0-5.307-0.295-9.248-0.882-11.822c-0.589-2.574-1.677-4.693-3.263-6.359
	c-1.382-1.508-2.981-2.6-4.797-3.276c-1.817-0.676-4.21-1.092-7.177-1.249v-1.795H411.185z"/>
<g>
	<path stroke="#000000" stroke-width="4" d="M246.871,221.34c-1.236,3.661-2.773,6.791-4.623,9.367
		c-2.651,3.715-6.388,6.593-11.21,8.63c-4.824,2.039-10.256,3.057-16.299,3.057c-12.085,0-21.786-4.075-29.1-12.228
		c-3.975-4.385-6.997-9.829-9.063-16.329c-2.068-6.501-3.101-13.802-3.101-21.902c0-9.544,1.511-18.059,4.532-25.54
		c2.12-5.313,4.85-10.047,8.19-14.202c3.339-4.152,6.942-7.338,10.813-9.557c4.398-2.528,9.593-3.793,15.583-3.793
		c3.976,0,7.554,0.619,10.734,1.857s6.253,3.225,9.223,5.959c3.922,3.612,6.917,7.585,8.985,11.919
		c1.165,2.425,2.675,6.114,4.531,11.067c0.318,0.773,0.768,1.909,1.352,3.404h1.829l-0.954-34.593h-1.908
		c-0.53,1.187-0.981,2.038-1.352,2.554c-0.848,1.083-1.935,1.625-3.259,1.625c-0.954,0-2.067-0.232-3.34-0.697l-6.519-2.09
		c-7.156-2.373-13.941-3.56-20.354-3.56c-6.732,0-13.451,1.097-20.155,3.289c-6.706,2.193-12.47,5.147-17.293,8.861
		c-6.255,4.851-11.132,11.26-14.629,19.232c-3.499,7.972-5.248,16.678-5.248,26.12c0,12.332,2.994,22.946,8.985,31.846
		c5.989,8.9,14.312,15.053,24.965,18.458c6.679,2.115,13.676,3.174,20.99,3.174c7.844,0,14.749-1.212,20.712-3.638
		c5.963-2.424,10.64-5.933,14.033-10.525c2.682-3.625,4.636-8.209,5.867-13.748C248.744,219.911,247.764,220.578,246.871,221.34z"/>
</g>
<path stroke="#000000" stroke-width="4" d="M538.302,138.021v1.816c-2.624,0.158-4.765,0.579-6.422,1.263
	c-1.659,0.684-3.108,1.79-4.353,3.314c-1.52,1.79-2.521,4-3.004,6.631c-0.483,2.632-0.726,7.157-0.726,13.576v44.677
	c0,7.261,0.242,12.51,0.726,15.747c0.483,3.236,1.461,6.223,2.935,8.958c2.211,4.157,4.938,7.171,8.184,9.038
	c3.247,1.868,7.333,2.802,12.261,2.802c4.789,0,9.358-0.829,13.71-2.485c4.351-1.658,7.978-3.96,10.876-6.907
	c1.796-1.842,3.12-3.841,3.972-6c0.852-2.157,1.417-4.894,1.692-8.209c0.184-2.157,0.277-7.261,0.277-15.312v-44.124
	c0-5.419-0.266-9.419-0.794-11.998c-0.531-2.579-1.511-4.709-2.937-6.395c-1.289-1.524-2.752-2.63-4.386-3.314
	c-1.634-0.684-3.763-1.104-6.389-1.263v-1.816h31.84v1.816c-2.624,0.158-4.755,0.579-6.389,1.263
	c-1.636,0.684-3.097,1.79-4.387,3.314c-1.427,1.685-2.405,3.829-2.935,6.434s-0.794,6.59-0.794,11.958v49.806
	c0,7.368-0.495,12.802-1.485,16.3c-0.991,3.5-2.958,6.697-5.904,9.591c-6.724,6.63-16.323,9.945-28.801,9.945
	c-13.031,0-22.631-3.13-28.801-9.393c-4.006-3.999-6.4-9.262-7.182-15.787c-0.276-2.315-0.414-6.498-0.414-12.55v-47.913
	c0-5.419-0.255-9.419-0.76-11.998c-0.509-2.579-1.498-4.709-2.971-6.395c-1.243-1.524-2.683-2.63-4.317-3.314
	c-1.634-0.684-3.787-1.104-6.457-1.263v-1.816H538.302z"/>
</svg>
